{
	"asset":{
		"generator":"Khronos glTF Blender I/O v4.2.69",
		"version":"2.0"
	},
	"scene":0,
	"scenes":[
		{
			"name":"Scene",
			"nodes":[
				1
			]
		}
	],
	"nodes":[
		{
			"mesh":0,
			"name":"leaves"
		},
		{
			"children":[
				0
			],
			"mesh":1,
			"name":"tree"
		}
	],
	"materials":[
		{
			"doubleSided":true,
			"name":"Material.002",
			"pbrMetallicRoughness":{
				"baseColorFactor":[
					0.0080229127779603,
					0.27467772364616394,
					0.003346598008647561,
					1
				],
				"metallicFactor":0,
				"roughnessFactor":0.5
			}
		},
		{
			"doubleSided":true,
			"name":"Material.001",
			"pbrMetallicRoughness":{
				"baseColorFactor":[
					0.051269177347421646,
					0.024157652631402016,
					0.005181523505598307,
					1
				],
				"metallicFactor":0,
				"roughnessFactor":0.5
			}
		}
	],
	"meshes":[
		{
			"name":"leaves",
			"primitives":[
				{
					"attributes":{
						"POSITION":0,
						"NORMAL":1,
						"TEXCOORD_0":2
					},
					"indices":3,
					"material":0
				}
			]
		},
		{
			"name":"tree",
			"primitives":[
				{
					"attributes":{
						"POSITION":4,
						"NORMAL":5,
						"TEXCOORD_0":6
					},
					"indices":7,
					"material":1
				}
			]
		}
	],
	"accessors":[
		{
			"bufferView":0,
			"componentType":5126,
			"count":173674,
			"max":[
				6.045894622802734,
				9.666754722595215,
				6.18414306640625
			],
			"min":[
				-5.5146684646606445,
				1.8681663274765015,
				-5.861484527587891
			],
			"type":"VEC3"
		},
		{
			"bufferView":1,
			"componentType":5126,
			"count":173674,
			"type":"VEC3"
		},
		{
			"bufferView":2,
			"componentType":5126,
			"count":173674,
			"type":"VEC2"
		},
		{
			"bufferView":3,
			"componentType":5125,
			"count":308712,
			"type":"SCALAR"
		},
		{
			"bufferView":4,
			"componentType":5126,
			"count":150885,
			"max":[
				5.884283065795898,
				9.55908489227295,
				6.054643154144287
			],
			"min":[
				-5.400882244110107,
				0,
				-5.745790958404541
			],
			"type":"VEC3"
		},
		{
			"bufferView":5,
			"componentType":5126,
			"count":150885,
			"type":"VEC3"
		},
		{
			"bufferView":6,
			"componentType":5126,
			"count":150885,
			"type":"VEC2"
		},
		{
			"bufferView":7,
			"componentType":5125,
			"count":705168,
			"type":"SCALAR"
		}
	],
	"bufferViews":[
		{
			"buffer":0,
			"byteLength":2084088,
			"byteOffset":0,
			"target":34962
		},
		{
			"buffer":0,
			"byteLength":2084088,
			"byteOffset":2084088,
			"target":34962
		},
		{
			"buffer":0,
			"byteLength":1389392,
			"byteOffset":4168176,
			"target":34962
		},
		{
			"buffer":0,
			"byteLength":1234848,
			"byteOffset":5557568,
			"target":34963
		},
		{
			"buffer":0,
			"byteLength":1810620,
			"byteOffset":6792416,
			"target":34962
		},
		{
			"buffer":0,
			"byteLength":1810620,
			"byteOffset":8603036,
			"target":34962
		},
		{
			"buffer":0,
			"byteLength":1207080,
			"byteOffset":10413656,
			"target":34962
		},
		{
			"buffer":0,
			"byteLength":2820672,
			"byteOffset":11620736,
			"target":34963
		}
	],
	"buffers":[
		{
			"byteLength":14441408,
			"uri":"tree_start.bin"
		}
	]
}
