{
	"asset":{
		"generator":"Khronos glTF Blender I/O v4.2.69",
		"version":"2.0"
	},
	"scene":0,
	"scenes":[
		{
			"name":"Scene",
			"nodes":[
				1
			]
		}
	],
	"nodes":[
		{
			"mesh":0,
			"name":"leaves"
		},
		{
			"children":[
				0
			],
			"mesh":1,
			"name":"tree",
			"scale":[
				0.8742257356643677,
				0.8742257356643677,
				0.8742257356643677
			]
		}
	],
	"materials":[
		{
			"doubleSided":true,
			"name":"Material.002",
			"pbrMetallicRoughness":{
				"baseColorFactor":[
					0.0080229127779603,
					0.27467772364616394,
					0.003346598008647561,
					1
				],
				"metallicFactor":0,
				"roughnessFactor":0.5
			}
		},
		{
			"doubleSided":true,
			"name":"Material.001",
			"pbrMetallicRoughness":{
				"baseColorFactor":[
					0.051269177347421646,
					0.024157652631402016,
					0.005181523505598307,
					1
				],
				"metallicFactor":0,
				"roughnessFactor":0.5
			}
		}
	],
	"meshes":[
		{
			"name":"leaves",
			"primitives":[
				{
					"attributes":{
						"POSITION":0,
						"NORMAL":1,
						"TEXCOORD_0":2
					},
					"indices":3,
					"material":0
				}
			]
		},
		{
			"name":"tree.002",
			"primitives":[
				{
					"attributes":{
						"POSITION":4,
						"NORMAL":5,
						"TEXCOORD_0":6
					},
					"indices":7,
					"material":1
				}
			]
		}
	],
	"accessors":[
		{
			"bufferView":0,
			"componentType":5126,
			"count":2896,
			"max":[
				4.970430850982666,
				11.24294376373291,
				5.138216972351074
			],
			"min":[
				-4.115825653076172,
				2.966766119003296,
				-3.9214768409729004
			],
			"type":"VEC3"
		},
		{
			"bufferView":1,
			"componentType":5126,
			"count":2896,
			"type":"VEC3"
		},
		{
			"bufferView":2,
			"componentType":5126,
			"count":2896,
			"type":"VEC2"
		},
		{
			"bufferView":3,
			"componentType":5123,
			"count":5472,
			"type":"SCALAR"
		},
		{
			"bufferView":4,
			"componentType":5126,
			"count":19665,
			"max":[
				4.886348724365234,
				11.143336296081543,
				5.017292499542236
			],
			"min":[
				-4.038997650146484,
				0,
				-3.7898926734924316
			],
			"type":"VEC3"
		},
		{
			"bufferView":5,
			"componentType":5126,
			"count":19665,
			"type":"VEC3"
		},
		{
			"bufferView":6,
			"componentType":5126,
			"count":19665,
			"type":"VEC2"
		},
		{
			"bufferView":7,
			"componentType":5123,
			"count":93984,
			"type":"SCALAR"
		}
	],
	"bufferViews":[
		{
			"buffer":0,
			"byteLength":34752,
			"byteOffset":0,
			"target":34962
		},
		{
			"buffer":0,
			"byteLength":34752,
			"byteOffset":34752,
			"target":34962
		},
		{
			"buffer":0,
			"byteLength":23168,
			"byteOffset":69504,
			"target":34962
		},
		{
			"buffer":0,
			"byteLength":10944,
			"byteOffset":92672,
			"target":34963
		},
		{
			"buffer":0,
			"byteLength":235980,
			"byteOffset":103616,
			"target":34962
		},
		{
			"buffer":0,
			"byteLength":235980,
			"byteOffset":339596,
			"target":34962
		},
		{
			"buffer":0,
			"byteLength":157320,
			"byteOffset":575576,
			"target":34962
		},
		{
			"buffer":0,
			"byteLength":187968,
			"byteOffset":732896,
			"target":34963
		}
	],
	"buffers":[
		{
			"byteLength":920864,
			"uri":"tree_level1.bin"
		}
	]
}
