{
	"asset":{
		"generator":"Khronos glTF Blender I/O v4.2.69",
		"version":"2.0"
	},
	"scene":0,
	"scenes":[
		{
			"name":"Scene",
			"nodes":[
				1
			]
		}
	],
	"nodes":[
		{
			"mesh":0,
			"name":"leaves"
		},
		{
			"children":[
				0
			],
			"mesh":1,
			"name":"tree",
			"scale":[
				0.8686944842338562,
				0.8686944842338562,
				0.8686944842338562
			]
		}
	],
	"materials":[
		{
			"doubleSided":true,
			"name":"Material.002",
			"pbrMetallicRoughness":{
				"baseColorFactor":[
					0.0080229127779603,
					0.27467772364616394,
					0.003346598008647561,
					1
				],
				"metallicFactor":0,
				"roughnessFactor":0.5
			}
		},
		{
			"doubleSided":true,
			"name":"Material.001",
			"pbrMetallicRoughness":{
				"baseColorFactor":[
					0.051269177347421646,
					0.024157652631402016,
					0.005181523505598307,
					1
				],
				"metallicFactor":0,
				"roughnessFactor":0.5
			}
		}
	],
	"meshes":[
		{
			"name":"leaves",
			"primitives":[
				{
					"attributes":{
						"POSITION":0,
						"NORMAL":1,
						"TEXCOORD_0":2
					},
					"indices":3,
					"material":0
				}
			]
		},
		{
			"name":"tree",
			"primitives":[
				{
					"attributes":{
						"POSITION":4,
						"NORMAL":5,
						"TEXCOORD_0":6
					},
					"indices":7,
					"material":1
				}
			]
		}
	],
	"accessors":[
		{
			"bufferView":0,
			"componentType":5126,
			"count":3380,
			"max":[
				2.629303455352783,
				6.764894485473633,
				2.7901253700256348
			],
			"min":[
				-2.995699882507324,
				0.7219537496566772,
				-3.1804447174072266
			],
			"type":"VEC3"
		},
		{
			"bufferView":1,
			"componentType":5126,
			"count":3380,
			"type":"VEC3"
		},
		{
			"bufferView":2,
			"componentType":5126,
			"count":3380,
			"type":"VEC2"
		},
		{
			"bufferView":3,
			"componentType":5123,
			"count":6552,
			"type":"SCALAR"
		},
		{
			"bufferView":4,
			"componentType":5126,
			"count":18368,
			"max":[
				2.493309497833252,
				6.484395503997803,
				2.518219470977783
			],
			"min":[
				-2.913335084915161,
				0,
				-2.9490883350372314
			],
			"type":"VEC3"
		},
		{
			"bufferView":5,
			"componentType":5126,
			"count":18368,
			"type":"VEC3"
		},
		{
			"bufferView":6,
			"componentType":5126,
			"count":18368,
			"type":"VEC2"
		},
		{
			"bufferView":7,
			"componentType":5123,
			"count":87696,
			"type":"SCALAR"
		}
	],
	"bufferViews":[
		{
			"buffer":0,
			"byteLength":40560,
			"byteOffset":0,
			"target":34962
		},
		{
			"buffer":0,
			"byteLength":40560,
			"byteOffset":40560,
			"target":34962
		},
		{
			"buffer":0,
			"byteLength":27040,
			"byteOffset":81120,
			"target":34962
		},
		{
			"buffer":0,
			"byteLength":13104,
			"byteOffset":108160,
			"target":34963
		},
		{
			"buffer":0,
			"byteLength":220416,
			"byteOffset":121264,
			"target":34962
		},
		{
			"buffer":0,
			"byteLength":220416,
			"byteOffset":341680,
			"target":34962
		},
		{
			"buffer":0,
			"byteLength":146944,
			"byteOffset":562096,
			"target":34962
		},
		{
			"buffer":0,
			"byteLength":175392,
			"byteOffset":709040,
			"target":34963
		}
	],
	"buffers":[
		{
			"byteLength":884432,
			"uri":"tree_level3.bin"
		}
	]
}
