{
	"asset":{
		"generator":"Khronos glTF Blender I/O v4.2.69",
		"version":"2.0"
	},
	"scene":0,
	"scenes":[
		{
			"name":"Scene",
			"nodes":[
				1
			]
		}
	],
	"nodes":[
		{
			"mesh":0,
			"name":"leaves"
		},
		{
			"children":[
				0
			],
			"mesh":1,
			"name":"tree"
		}
	],
	"materials":[
		{
			"doubleSided":true,
			"name":"Material.002",
			"pbrMetallicRoughness":{
				"baseColorFactor":[
					0.0080229127779603,
					0.27467772364616394,
					0.003346598008647561,
					1
				],
				"metallicFactor":0,
				"roughnessFactor":0.5
			}
		},
		{
			"doubleSided":true,
			"name":"Material.001",
			"pbrMetallicRoughness":{
				"baseColorFactor":[
					0.051269177347421646,
					0.024157652631402016,
					0.005181523505598307,
					1
				],
				"metallicFactor":0,
				"roughnessFactor":0.5
			}
		}
	],
	"meshes":[
		{
			"name":"leaves",
			"primitives":[
				{
					"attributes":{
						"POSITION":0,
						"NORMAL":1,
						"TEXCOORD_0":2
					},
					"indices":3,
					"material":0
				}
			]
		},
		{
			"name":"tree",
			"primitives":[
				{
					"attributes":{
						"POSITION":4,
						"NORMAL":5,
						"TEXCOORD_0":6
					},
					"indices":7,
					"material":1
				}
			]
		}
	],
	"accessors":[
		{
			"bufferView":0,
			"componentType":5126,
			"count":35338,
			"max":[
				6.962204456329346,
				16.291433334350586,
				7.350856304168701
			],
			"min":[
				-6.07149076461792,
				4.128903865814209,
				-5.961906433105469
			],
			"type":"VEC3"
		},
		{
			"bufferView":1,
			"componentType":5126,
			"count":35338,
			"type":"VEC3"
		},
		{
			"bufferView":2,
			"componentType":5126,
			"count":35338,
			"type":"VEC2"
		},
		{
			"bufferView":3,
			"componentType":5123,
			"count":66252,
			"type":"SCALAR"
		},
		{
			"bufferView":4,
			"componentType":5126,
			"count":27414,
			"max":[
				6.89282751083374,
				16.153549194335938,
				7.194343566894531
			],
			"min":[
				-5.9533772468566895,
				0,
				-5.885271072387695
			],
			"type":"VEC3"
		},
		{
			"bufferView":5,
			"componentType":5126,
			"count":27414,
			"type":"VEC3"
		},
		{
			"bufferView":6,
			"componentType":5126,
			"count":27414,
			"type":"VEC2"
		},
		{
			"bufferView":7,
			"componentType":5123,
			"count":130080,
			"type":"SCALAR"
		}
	],
	"bufferViews":[
		{
			"buffer":0,
			"byteLength":424056,
			"byteOffset":0,
			"target":34962
		},
		{
			"buffer":0,
			"byteLength":424056,
			"byteOffset":424056,
			"target":34962
		},
		{
			"buffer":0,
			"byteLength":282704,
			"byteOffset":848112,
			"target":34962
		},
		{
			"buffer":0,
			"byteLength":132504,
			"byteOffset":1130816,
			"target":34963
		},
		{
			"buffer":0,
			"byteLength":328968,
			"byteOffset":1263320,
			"target":34962
		},
		{
			"buffer":0,
			"byteLength":328968,
			"byteOffset":1592288,
			"target":34962
		},
		{
			"buffer":0,
			"byteLength":219312,
			"byteOffset":1921256,
			"target":34962
		},
		{
			"buffer":0,
			"byteLength":260160,
			"byteOffset":2140568,
			"target":34963
		}
	],
	"buffers":[
		{
			"byteLength":2400728,
			"uri":"tree_level3.bin"
		}
	]
}
