{
	"asset":{
		"generator":"Khronos glTF Blender I/O v4.2.69",
		"version":"2.0"
	},
	"scene":0,
	"scenes":[
		{
			"name":"Scene",
			"nodes":[
				1
			]
		}
	],
	"nodes":[
		{
			"mesh":0,
			"name":"leaves"
		},
		{
			"children":[
				0
			],
			"mesh":1,
			"name":"tree"
		}
	],
	"materials":[
		{
			"doubleSided":true,
			"name":"Material.002",
			"pbrMetallicRoughness":{
				"baseColorFactor":[
					0.0080229127779603,
					0.27467772364616394,
					0.003346598008647561,
					1
				],
				"metallicFactor":0,
				"roughnessFactor":0.5
			}
		},
		{
			"doubleSided":true,
			"name":"Material.001",
			"pbrMetallicRoughness":{
				"baseColorFactor":[
					0.051269177347421646,
					0.024157652631402016,
					0.005181523505598307,
					1
				],
				"metallicFactor":0,
				"roughnessFactor":0.5
			}
		}
	],
	"meshes":[
		{
			"name":"leaves",
			"primitives":[
				{
					"attributes":{
						"POSITION":0,
						"NORMAL":1,
						"TEXCOORD_0":2
					},
					"indices":3,
					"material":0
				}
			]
		},
		{
			"name":"tree",
			"primitives":[
				{
					"attributes":{
						"POSITION":4,
						"NORMAL":5,
						"TEXCOORD_0":6
					},
					"indices":7,
					"material":1
				}
			]
		}
	],
	"accessors":[
		{
			"bufferView":0,
			"componentType":5126,
			"count":60290,
			"max":[
				7.377549171447754,
				16.88920021057129,
				7.780379772186279
			],
			"min":[
				-6.7983832359313965,
				2.9511055946350098,
				-6.561310291290283
			],
			"type":"VEC3"
		},
		{
			"bufferView":1,
			"componentType":5126,
			"count":60290,
			"type":"VEC3"
		},
		{
			"bufferView":2,
			"componentType":5126,
			"count":60290,
			"type":"VEC2"
		},
		{
			"bufferView":3,
			"componentType":5123,
			"count":113508,
			"type":"SCALAR"
		},
		{
			"bufferView":4,
			"componentType":5126,
			"count":125055,
			"max":[
				7.24371337890625,
				16.81840705871582,
				7.743594646453857
			],
			"min":[
				-6.679581642150879,
				0,
				-6.4489874839782715
			],
			"type":"VEC3"
		},
		{
			"bufferView":5,
			"componentType":5126,
			"count":125055,
			"type":"VEC3"
		},
		{
			"bufferView":6,
			"componentType":5126,
			"count":125055,
			"type":"VEC2"
		},
		{
			"bufferView":7,
			"componentType":5125,
			"count":564288,
			"type":"SCALAR"
		}
	],
	"bufferViews":[
		{
			"buffer":0,
			"byteLength":723480,
			"byteOffset":0,
			"target":34962
		},
		{
			"buffer":0,
			"byteLength":723480,
			"byteOffset":723480,
			"target":34962
		},
		{
			"buffer":0,
			"byteLength":482320,
			"byteOffset":1446960,
			"target":34962
		},
		{
			"buffer":0,
			"byteLength":227016,
			"byteOffset":1929280,
			"target":34963
		},
		{
			"buffer":0,
			"byteLength":1500660,
			"byteOffset":2156296,
			"target":34962
		},
		{
			"buffer":0,
			"byteLength":1500660,
			"byteOffset":3656956,
			"target":34962
		},
		{
			"buffer":0,
			"byteLength":1000440,
			"byteOffset":5157616,
			"target":34962
		},
		{
			"buffer":0,
			"byteLength":2257152,
			"byteOffset":6158056,
			"target":34963
		}
	],
	"buffers":[
		{
			"byteLength":8415208,
			"uri":"tree_level4.bin"
		}
	]
}
